<svg xmlns="http://www.w3.org/2000/svg" viewBox="0 0 170 37.06">
  <polygon points="24.64 36.95 23.86 36.95 23.86 32.94 26.44 32.94 26.44 33.68 24.64 33.68 24.64 34.51 26.32 34.51 26.32 35.25 24.64 35.25 24.64 36.95" fill="#fff"/>
  <path d="M32.73,37h-.85l-.4-.94H29.89L29.5,37h-.85l1.73-4H31ZM30.2,35.25h1l-.48-1.17Z" transform="translate(0 0.01)" fill="#fff"/>
  <path d="M37.28,37a2.35,2.35,0,0,1-.83-.16,2,2,0,0,1-.66-.44,1.83,1.83,0,0,1-.43-.67,2.27,2.27,0,0,1,0-1.66,2,2,0,0,1,.44-.67,2,2,0,0,1,.66-.44,2.29,2.29,0,0,1,.82-.15,1.55,1.55,0,0,1,.43,0,1.87,1.87,0,0,1,.4.13,2.5,2.5,0,0,1,.35.21.9.9,0,0,1,.27.28l.11.16-.64.47-.12-.18a.69.69,0,0,0-.11-.13.57.57,0,0,0-.18-.12l-.23-.1h-.27a1.46,1.46,0,0,0-.55.11,1.28,1.28,0,0,0-.4.29,1.43,1.43,0,0,0-.25.43,1.61,1.61,0,0,0,0,1.06,1.45,1.45,0,0,0,.26.43,1.28,1.28,0,0,0,.4.29,1.41,1.41,0,0,0,.54.11,1.25,1.25,0,0,0,.5-.11h0a.93.93,0,0,0,.38-.33l.11-.17.63.41-.11.17a2.26,2.26,0,0,1-.25.29,1.48,1.48,0,0,1-.35.25,1.92,1.92,0,0,1-.42.16A1.69,1.69,0,0,1,37.28,37Z" transform="translate(0 0.01)" fill="#fff"/>
  <polygon points="44.5 36.95 41.8 36.95 41.8 32.95 44.44 32.95 44.44 33.68 42.57 33.68 42.57 34.51 44.31 34.51 44.31 35.24 42.57 35.24 42.57 36.22 44.5 36.22 44.5 36.95" fill="#fff"/>
  <polygon points="53 36.95 52.23 36.95 52.23 33.68 51.02 33.68 51.02 32.95 54.21 32.95 54.21 33.68 53 33.68 53 36.95" fill="#fff"/>
  <polygon points="60.18 36.96 59.41 36.96 59.41 35.25 57.85 35.25 57.85 36.95 57.08 36.95 57.08 32.95 57.85 32.95 57.85 34.51 59.41 34.51 59.41 32.95 60.18 32.95 60.18 36.96" fill="#fff"/>
  <polygon points="66.17 36.96 63.47 36.96 63.47 32.95 66.11 32.95 66.11 33.68 64.25 33.68 64.25 34.51 65.99 34.51 65.99 35.24 64.25 35.24 64.25 36.22 66.17 36.22 66.17 36.96" fill="#fff"/>
  <path d="M74.77,37a1.57,1.57,0,0,1-.77-.16,1.38,1.38,0,0,1-.48-.42,1.32,1.32,0,0,1-.24-.54,2.25,2.25,0,0,1-.07-.52V33H74V35.4a1.21,1.21,0,0,0,0,.38,1.11,1.11,0,0,0,.14.29.74.74,0,0,0,.23.2.77.77,0,0,0,.37.08.76.76,0,0,0,.36-.08.55.55,0,0,0,.23-.2,1.11,1.11,0,0,0,.14-.29,1.21,1.21,0,0,0,0-.38V32.93h.78v2.46a2.25,2.25,0,0,1-.07.52,1.32,1.32,0,0,1-.24.54,1.41,1.41,0,0,1-.49.42A1.6,1.6,0,0,1,74.77,37Z" transform="translate(0 0.01)" fill="#fff"/>
  <path d="M82.92,37h-.77l-1.79-2.6V37h-.77V33h.77l1.79,2.63V33h.77Zm-.55-.41h.14v-.12h-.23ZM80,33.45h.21l-.06-.1H80Z" transform="translate(0 0.01)" fill="#fff"/>
  <path d="M87,37h-.78V33h1.25A2.35,2.35,0,0,1,88,33a1.92,1.92,0,0,1,.46.21h0a1,1,0,0,1,.3.38,1.24,1.24,0,0,1,0,1,1,1,0,0,1-.31.38,1.28,1.28,0,0,1-.46.21,2,2,0,0,1-.55.07H87Zm0-2.39h.41a.83.83,0,0,0,.53-.13.36.36,0,0,0,.15-.32.34.34,0,0,0-.15-.32,1,1,0,0,0-.53-.12H87Z" transform="translate(0 0.01)" fill="#fff"/>
  <path d="M94.89,37H94l-1-1.68h-.28V37H91.9V33h1.26a2.44,2.44,0,0,1,.54,0,1.57,1.57,0,0,1,.46.2.88.88,0,0,1,.32.37,1.17,1.17,0,0,1,0,1,1.21,1.21,0,0,1-.24.35,1.18,1.18,0,0,1-.35.23h-.12Zm-2.21-2.4h.43a1,1,0,0,0,.56-.13.35.35,0,0,0,.15-.31.34.34,0,0,0,0-.2.69.69,0,0,0-.11-.13.83.83,0,0,0-.22-.08h-.77Z" transform="translate(0 0.01)" fill="#fff"/>
  <polygon points="100.39 36.96 97.69 36.96 97.69 32.95 100.33 32.95 100.33 33.69 98.46 33.69 98.46 34.51 100.21 34.51 100.21 35.25 98.46 35.25 98.46 36.23 100.39 36.23 100.39 36.96" fill="#fff"/>
  <path d="M104.84,37h-1.38V33h1.4a2.28,2.28,0,0,1,.73.12,2.14,2.14,0,0,1,.68.37h0a2,2,0,0,1,.18,2.82l-.18.18a2.14,2.14,0,0,1-.68.37A2.37,2.37,0,0,1,104.84,37Zm-.63-.73h.53a1.66,1.66,0,0,0,.62-.11,1.6,1.6,0,0,0,.44-.29,1.29,1.29,0,0,0,0-1.74,1.42,1.42,0,0,0-.43-.29,1.67,1.67,0,0,0-.63-.11h-.53Z" transform="translate(0 0.01)" fill="#fff"/>
  <rect x="110.03" y="32.96" width="0.77" height="4.01" fill="#fff"/>
  <path d="M116,37.05h0a2.15,2.15,0,0,1-.83-.16,2,2,0,0,1-1.1-1.1,2.4,2.4,0,0,1-.15-.84,2.1,2.1,0,0,1,.6-1.5,2,2,0,0,1,.66-.44,2.29,2.29,0,0,1,.82-.15h.43a2.67,2.67,0,0,1,.4.13,2.39,2.39,0,0,1,.34.21,1.24,1.24,0,0,1,.28.28l.11.16-.64.47-.12-.18a.69.69,0,0,0-.11-.13.57.57,0,0,0-.18-.12l-.24-.1H116a1.41,1.41,0,0,0-.54.11,1.28,1.28,0,0,0-.4.29,1.45,1.45,0,0,0-.26.43,1.49,1.49,0,0,0,0,1.06,1.43,1.43,0,0,0,.25.43,1.46,1.46,0,0,0,.41.29,1.24,1.24,0,0,0,1,0h0a.93.93,0,0,0,.38-.33l.11-.17.63.41-.11.17a1.8,1.8,0,0,1-.26.29,1.2,1.2,0,0,1-.34.25A1.75,1.75,0,0,1,116,37Z" transform="translate(0 0.01)" fill="#fff"/>
  <polygon points="122.03 36.96 121.25 36.96 121.25 33.69 120.05 33.69 120.05 32.96 123.23 32.96 123.23 33.69 122.03 33.69 122.03 36.96" fill="#fff"/>
  <path d="M129.34,37h-.88l-.4-1h-1.6l-.39,1h-.85L127,33h.62Zm-2.53-1.69h1l-.48-1.17Z" transform="translate(0 0.01)" fill="#fff"/>
  <path d="M133.37,37H132.1V33h1.73a1.39,1.39,0,0,1,.44.17,1.14,1.14,0,0,1,.34.35,1.21,1.21,0,0,1,.13.56,1,1,0,0,1-.22.62l-.11.12a1.12,1.12,0,0,1,.38,1.44,1,1,0,0,1-.32.38,1.49,1.49,0,0,1-.49.24A2.13,2.13,0,0,1,133.37,37Zm-.5-.73h.82a.51.51,0,0,0,.24-.1.28.28,0,0,0,.15-.15h0a.38.38,0,0,0,0-.21.41.41,0,0,0-.15-.37,1,1,0,0,0-.56-.14h-.55Zm0-1.7h.76a.67.67,0,0,0,.18-.07.69.69,0,0,0,.11-.13.34.34,0,0,0,0-.2.31.31,0,0,0,0-.19.49.49,0,0,0-.12-.13.7.7,0,0,0-.2-.08h-.73Z" transform="translate(0 0.01)" fill="#fff"/>
  <polygon points="140.53 36.96 138.07 36.96 138.07 32.96 138.85 32.96 138.85 36.23 140.53 36.23 140.53 36.96" fill="#fff"/>
  <polygon points="146.11 36.97 143.41 36.97 143.41 32.96 146.05 32.96 146.05 33.69 144.18 33.69 144.18 34.52 145.93 34.52 145.93 35.25 144.18 35.25 144.18 36.23 146.11 36.23 146.11 36.97" fill="#fff"/>
  <path d="M16.67,6V0L0,12.39l16.67,12.4V18.25l-.46-.35L11,14l-2.19-1.6,7.87-5.87Z" transform="translate(0 0.01)" fill="#fff"/>
  <path d="M161,12.35,153.3,6.6V.06L170,12.46l-16.7,12.4V18.32l.46-.35,6-4.49,1.37-1h0Z" transform="translate(0 0.01)" fill="#fff"/>
  <polygon points="69.75 0.01 64.51 0.01 64.51 24.85 69.75 24.85 69.75 14.9 72.81 14.9 72.81 9.97 69.75 9.97 69.75 0.01" fill="#fff"/>
  <rect x="75.13" y="0.01" width="5.22" height="24.85" fill="#fff"/>
  <rect x="122.9" y="9.97" width="5.22" height="14.88" fill="#fff"/>
  <rect x="122.9" y="0.01" width="5.22" height="4.93" fill="#fff"/>
  <rect x="45.6" y="0.01" width="15.85" height="4.93" fill="#fff"/>
  <rect x="45.6" y="9.97" width="15.85" height="4.93" fill="#fff"/>
  <rect x="45.59" y="19.94" width="15.85" height="4.92" fill="#fff"/>
  <rect x="23.8" y="0.01" width="18.74" height="4.93" fill="#fff"/>
  <rect x="30.55" y="9.97" width="5.25" height="14.88" fill="#fff"/>
  <rect x="83.39" y="0.01" width="18.71" height="4.93" fill="#fff"/>
  <rect x="90.13" y="9.97" width="5.23" height="14.89" fill="#fff"/>
  <path d="M146,5.9a6.93,6.93,0,0,0-3.2-4.73,7.54,7.54,0,0,0-5.56-1A7,7,0,0,0,132,4.1a7.74,7.74,0,0,0-.63,4.9,7.08,7.08,0,0,0,3.37,5.08l1.76,1.06v-8a2.19,2.19,0,0,1,4.32-.48l.21.91h5.18L146,6.23A1.82,1.82,0,0,0,146,5.9Z" transform="translate(0 0.01)" fill="#fff"/>
  <path d="M142.63,10.84l-1.76-1.07v8a2.19,2.19,0,0,1-4.32.51l-.21-.89h-5.21l.23,1.35a7,7,0,0,0,3.36,5.08,7.33,7.33,0,0,0,3.86,1.1,8.44,8.44,0,0,0,1.81-.2,6.89,6.89,0,0,0,4.78-3.51,7.67,7.67,0,0,0,.89-4.9A7.22,7.22,0,0,0,142.63,10.84Z" transform="translate(0 0.01)" fill="#fff"/>
  <path d="M114,14.67c.27-.1.54-.21.81-.34A7,7,0,0,0,118.65,9a7.54,7.54,0,0,0-1-5.56,6.7,6.7,0,0,0-3.28-2.8L112.91.21a10.4,10.4,0,0,0-1.12-.15H105.3V5h6.52a2.52,2.52,0,0,1,0,5h-6.58v4.2l7.37,10.68h6.68l-7.16-9.79A7.44,7.44,0,0,0,114,14.67Z" transform="translate(0 0.01)" fill="#fff"/>
</svg>
